<svg width="20" height="40" viewBox="0 0 20 40" fill="none" xmlns="http://www.w3.org/2000/svg">
<path d="M10.8837 39.6336L19.6336 30.8836C19.8725 30.6451 20 30.325 20 30C20 29.8387 19.9699 29.6749 19.9051 29.5212C19.7126 29.055 19.255 28.75 18.75 28.75H12.5V1.25C12.5 0.558871 11.9411 0 11.25 0H8.75C8.05887 0 7.5 0.558871 7.5 1.25V28.75H1.25001C0.744985 28.75 0.287364 29.0549 0.0948638 29.5212C0.0287367 29.6749 0 29.8387 0 30C0 30.325 0.127514 30.6451 0.366349 30.8836L9.11634 39.6336C9.6049 40.1225 10.3951 40.1225 10.8836 39.6336H10.8837Z" fill="#7C7C7C"/>
</svg>
