<svg width="16" height="16" viewBox="0 0 16 16" fill="none" xmlns="http://www.w3.org/2000/svg">
<path d="M8 16C3.58872 16 0 12.4113 0 8C0 3.58872 3.58872 0 8 0C12.4113 0 16 3.58872 16 8C16 12.4113 12.4113 16 8 16ZM8 0.966443C4.12196 0.966443 0.966443 4.12196 0.966443 8C0.966443 11.878 4.12196 15.0336 8 15.0336C11.878 15.0336 15.0336 11.878 15.0336 8C15.0336 4.12196 11.878 0.966443 8 0.966443Z" fill="black"/>
<path d="M10.5164 10.4296C10.4133 10.4296 10.3091 10.3969 10.2211 10.3287L7.70404 8.38237C7.58587 8.29104 7.5166 8.14986 7.5166 8.00005V4.05697C7.5166 3.79007 7.73293 3.57375 7.99982 3.57375C8.26672 3.57375 8.48304 3.79007 8.48304 4.05697V7.76289L10.8121 9.56419C11.0232 9.72742 11.0618 10.0308 10.8985 10.2423C10.8036 10.3653 10.6608 10.4297 10.5164 10.4297V10.4296Z" fill="black"/>
</svg>
